<?xml version="1.0" encoding="UTF-8" standalone="no"?>
<!-- Uploaded to: SVG Repo, www.svgrepo.com, Generator: SVG Repo Mixer Tools -->

<svg
   fill="#000000"
   width="800px"
   height="800px"
   viewBox="0 0 24 24"
   id="road-block"
   data-name="Flat Color"
   class="icon flat-color"
   version="1.1"
   sodipodi:docname="blocked_road.svg"
   inkscape:version="1.4 (86a8ad7, 2024-10-11)"
   xmlns:inkscape="http://www.inkscape.org/namespaces/inkscape"
   xmlns:sodipodi="http://sodipodi.sourceforge.net/DTD/sodipodi-0.dtd"
   xmlns="http://www.w3.org/2000/svg"
   xmlns:svg="http://www.w3.org/2000/svg">
  <defs
     id="defs1" />
  <sodipodi:namedview
     id="namedview1"
     pagecolor="#505050"
     bordercolor="#ffffff"
     borderopacity="1"
     inkscape:showpageshadow="0"
     inkscape:pageopacity="0"
     inkscape:pagecheckerboard="1"
     inkscape:deskcolor="#505050"
     showgrid="false"
     inkscape:zoom="1.00875"
     inkscape:cx="399.50434"
     inkscape:cy="400"
     inkscape:window-width="1920"
     inkscape:window-height="1009"
     inkscape:window-x="-8"
     inkscape:window-y="-8"
     inkscape:window-maximized="1"
     inkscape:current-layer="road-block" />
  <path
     id="secondary"
     d="M6,7A1,1,0,0,1,5,6V4A1,1,0,0,1,7,4V6A1,1,0,0,1,6,7ZM7,20V12a1,1,0,0,0-2,0v8a1,1,0,0,0,2,0ZM19,6V4a1,1,0,0,0-2,0V6a1,1,0,0,0,2,0Zm0,14V12a1,1,0,0,0-2,0v8a1,1,0,0,0,2,0Z"
     style="fill:#196b24;fill-opacity:1" />
  <path
     id="primary"
     d="M20,21H16a1,1,0,0,1,0-2h4a1,1,0,0,1,0,2ZM9,20a1,1,0,0,0-1-1H4a1,1,0,0,0,0,2H8A1,1,0,0,0,9,20ZM20,5H4A2,2,0,0,0,2,7v4a2,2,0,0,0,2,2H20a2,2,0,0,0,2-2V7A2,2,0,0,0,20,5Z"
     style="fill:#404040;fill-opacity:1" />
</svg>
